<svg width="74" height="49" viewBox="0 0 74 49" fill="none" xmlns="http://www.w3.org/2000/svg">
<path d="M6.99864 7.476C6.99864 8.99267 6.70831 10.1583 6.12764 10.973C5.55564 11.779 4.76264 12.182 3.74864 12.182C2.73464 12.182 1.93731 11.779 1.35664 10.973C0.784641 10.1583 0.498641 8.99267 0.498641 7.476C0.498641 6.722 0.572307 6.05467 0.719641 5.474C0.875641 4.89333 1.09664 4.40367 1.38264 4.005C1.66864 3.60633 2.01097 3.303 2.40964 3.095C2.80831 2.887 3.25464 2.783 3.74864 2.783C4.76264 2.783 5.55564 3.19033 6.12764 4.005C6.70831 4.811 6.99864 5.968 6.99864 7.476ZM5.02264 7.476C5.02264 7.02533 5.00097 6.618 4.95764 6.254C4.91431 5.88133 4.84497 5.56067 4.74964 5.292C4.65431 5.02333 4.52431 4.81533 4.35964 4.668C4.19497 4.52067 3.99131 4.447 3.74864 4.447C3.50597 4.447 3.30231 4.52067 3.13764 4.668C2.98164 4.81533 2.85164 5.02333 2.74764 5.292C2.65231 5.56067 2.58297 5.88133 2.53964 6.254C2.49631 6.618 2.47464 7.02533 2.47464 7.476C2.47464 7.92667 2.49631 8.33833 2.53964 8.711C2.58297 9.08367 2.65231 9.40433 2.74764 9.673C2.85164 9.94167 2.98164 10.1497 3.13764 10.297C3.30231 10.4443 3.50597 10.518 3.74864 10.518C3.99131 10.518 4.19497 10.4443 4.35964 10.297C4.52431 10.1497 4.65431 9.94167 4.74964 9.673C4.84497 9.40433 4.91431 9.08367 4.95764 8.711C5.00097 8.33833 5.02264 7.92667 5.02264 7.476ZM8.35531 4.863C8.60665 4.759 8.86665 4.642 9.13531 4.512C9.41265 4.37333 9.68131 4.226 9.94131 4.07C10.2013 3.90533 10.4483 3.73633 10.6823 3.563C10.925 3.381 11.1416 3.19033 11.3323 2.991H12.6843V12H10.7473V5.513C10.4873 5.68633 10.197 5.84667 9.87631 5.994C9.55565 6.13267 9.24365 6.254 8.94031 6.358L8.35531 4.863ZM21.776 7.476C21.776 8.99267 21.4857 10.1583 20.905 10.973C20.333 11.779 19.54 12.182 18.526 12.182C17.512 12.182 16.7147 11.779 16.134 10.973C15.562 10.1583 15.276 8.99267 15.276 7.476C15.276 6.722 15.3497 6.05467 15.497 5.474C15.653 4.89333 15.874 4.40367 16.16 4.005C16.446 3.60633 16.7883 3.303 17.187 3.095C17.5857 2.887 18.032 2.783 18.526 2.783C19.54 2.783 20.333 3.19033 20.905 4.005C21.4857 4.811 21.776 5.968 21.776 7.476ZM19.8 7.476C19.8 7.02533 19.7783 6.618 19.735 6.254C19.6917 5.88133 19.6223 5.56067 19.527 5.292C19.4317 5.02333 19.3017 4.81533 19.137 4.668C18.9723 4.52067 18.7687 4.447 18.526 4.447C18.2833 4.447 18.0797 4.52067 17.915 4.668C17.759 4.81533 17.629 5.02333 17.525 5.292C17.4297 5.56067 17.3603 5.88133 17.317 6.254C17.2737 6.618 17.252 7.02533 17.252 7.476C17.252 7.92667 17.2737 8.33833 17.317 8.711C17.3603 9.08367 17.4297 9.40433 17.525 9.673C17.629 9.94167 17.759 10.1497 17.915 10.297C18.0797 10.4443 18.2833 10.518 18.526 10.518C18.7687 10.518 18.9723 10.4443 19.137 10.297C19.3017 10.1497 19.4317 9.94167 19.527 9.673C19.6223 9.40433 19.6917 9.08367 19.735 8.711C19.7783 8.33833 19.8 7.92667 19.8 7.476ZM29.1647 7.476C29.1647 8.99267 28.8743 10.1583 28.2937 10.973C27.7217 11.779 26.9287 12.182 25.9147 12.182C24.9007 12.182 24.1033 11.779 23.5227 10.973C22.9507 10.1583 22.6647 8.99267 22.6647 7.476C22.6647 6.722 22.7383 6.05467 22.8857 5.474C23.0417 4.89333 23.2627 4.40367 23.5487 4.005C23.8347 3.60633 24.177 3.303 24.5757 3.095C24.9743 2.887 25.4207 2.783 25.9147 2.783C26.9287 2.783 27.7217 3.19033 28.2937 4.005C28.8743 4.811 29.1647 5.968 29.1647 7.476ZM27.1887 7.476C27.1887 7.02533 27.167 6.618 27.1237 6.254C27.0803 5.88133 27.011 5.56067 26.9157 5.292C26.8203 5.02333 26.6903 4.81533 26.5257 4.668C26.361 4.52067 26.1573 4.447 25.9147 4.447C25.672 4.447 25.4683 4.52067 25.3037 4.668C25.1477 4.81533 25.0177 5.02333 24.9137 5.292C24.8183 5.56067 24.749 5.88133 24.7057 6.254C24.6623 6.618 24.6407 7.02533 24.6407 7.476C24.6407 7.92667 24.6623 8.33833 24.7057 8.711C24.749 9.08367 24.8183 9.40433 24.9137 9.673C25.0177 9.94167 25.1477 10.1497 25.3037 10.297C25.4683 10.4443 25.672 10.518 25.9147 10.518C26.1573 10.518 26.361 10.4443 26.5257 10.297C26.6903 10.1497 26.8203 9.94167 26.9157 9.673C27.011 9.40433 27.0803 9.08367 27.1237 8.711C27.167 8.33833 27.1887 7.92667 27.1887 7.476ZM30.5213 4.863C30.7727 4.759 31.0327 4.642 31.3013 4.512C31.5787 4.37333 31.8473 4.226 32.1073 4.07C32.3673 3.90533 32.6143 3.73633 32.8483 3.563C33.091 3.381 33.3077 3.19033 33.4983 2.991H34.8503V12H32.9133V5.513C32.6533 5.68633 32.363 5.84667 32.0423 5.994C31.7217 6.13267 31.4097 6.254 31.1063 6.358L30.5213 4.863ZM43.942 7.476C43.942 8.99267 43.6517 10.1583 43.071 10.973C42.499 11.779 41.706 12.182 40.692 12.182C39.678 12.182 38.8807 11.779 38.3 10.973C37.728 10.1583 37.442 8.99267 37.442 7.476C37.442 6.722 37.5157 6.05467 37.663 5.474C37.819 4.89333 38.04 4.40367 38.326 4.005C38.612 3.60633 38.9543 3.303 39.353 3.095C39.7517 2.887 40.198 2.783 40.692 2.783C41.706 2.783 42.499 3.19033 43.071 4.005C43.6517 4.811 43.942 5.968 43.942 7.476ZM41.966 7.476C41.966 7.02533 41.9443 6.618 41.901 6.254C41.8577 5.88133 41.7883 5.56067 41.693 5.292C41.5977 5.02333 41.4677 4.81533 41.303 4.668C41.1383 4.52067 40.9347 4.447 40.692 4.447C40.4493 4.447 40.2457 4.52067 40.081 4.668C39.925 4.81533 39.795 5.02333 39.691 5.292C39.5957 5.56067 39.5263 5.88133 39.483 6.254C39.4397 6.618 39.418 7.02533 39.418 7.476C39.418 7.92667 39.4397 8.33833 39.483 8.711C39.5263 9.08367 39.5957 9.40433 39.691 9.673C39.795 9.94167 39.925 10.1497 40.081 10.297C40.2457 10.4443 40.4493 10.518 40.692 10.518C40.9347 10.518 41.1383 10.4443 41.303 10.297C41.4677 10.1497 41.5977 9.94167 41.693 9.673C41.7883 9.40433 41.8577 9.08367 41.901 8.711C41.9443 8.33833 41.966 7.92667 41.966 7.476ZM45.2987 4.863C45.55 4.759 45.81 4.642 46.0787 4.512C46.356 4.37333 46.6247 4.226 46.8847 4.07C47.1447 3.90533 47.3917 3.73633 47.6257 3.563C47.8683 3.381 48.085 3.19033 48.2757 2.991H49.6277V12H47.6907V5.513C47.4307 5.68633 47.1403 5.84667 46.8197 5.994C46.499 6.13267 46.187 6.254 45.8837 6.358L45.2987 4.863ZM58.7193 7.476C58.7193 8.99267 58.429 10.1583 57.8483 10.973C57.2763 11.779 56.4833 12.182 55.4693 12.182C54.4553 12.182 53.658 11.779 53.0773 10.973C52.5053 10.1583 52.2193 8.99267 52.2193 7.476C52.2193 6.722 52.293 6.05467 52.4403 5.474C52.5963 4.89333 52.8173 4.40367 53.1033 4.005C53.3893 3.60633 53.7317 3.303 54.1303 3.095C54.529 2.887 54.9753 2.783 55.4693 2.783C56.4833 2.783 57.2763 3.19033 57.8483 4.005C58.429 4.811 58.7193 5.968 58.7193 7.476ZM56.7433 7.476C56.7433 7.02533 56.7217 6.618 56.6783 6.254C56.635 5.88133 56.5657 5.56067 56.4703 5.292C56.375 5.02333 56.245 4.81533 56.0803 4.668C55.9157 4.52067 55.712 4.447 55.4693 4.447C55.2267 4.447 55.023 4.52067 54.8583 4.668C54.7023 4.81533 54.5723 5.02333 54.4683 5.292C54.373 5.56067 54.3037 5.88133 54.2603 6.254C54.217 6.618 54.1953 7.02533 54.1953 7.476C54.1953 7.92667 54.217 8.33833 54.2603 8.711C54.3037 9.08367 54.373 9.40433 54.4683 9.673C54.5723 9.94167 54.7023 10.1497 54.8583 10.297C55.023 10.4443 55.2267 10.518 55.4693 10.518C55.712 10.518 55.9157 10.4443 56.0803 10.297C56.245 10.1497 56.375 9.94167 56.4703 9.673C56.5657 9.40433 56.635 9.08367 56.6783 8.711C56.7217 8.33833 56.7433 7.92667 56.7433 7.476ZM60.076 4.863C60.3273 4.759 60.5873 4.642 60.856 4.512C61.1333 4.37333 61.402 4.226 61.662 4.07C61.922 3.90533 62.169 3.73633 62.403 3.563C62.6457 3.381 62.8623 3.19033 63.053 2.991H64.405V12H62.468V5.513C62.208 5.68633 61.9177 5.84667 61.597 5.994C61.2763 6.13267 60.9643 6.254 60.661 6.358L60.076 4.863ZM73.4967 7.476C73.4967 8.99267 73.2064 10.1583 72.6257 10.973C72.0537 11.779 71.2607 12.182 70.2467 12.182C69.2327 12.182 68.4354 11.779 67.8547 10.973C67.2827 10.1583 66.9967 8.99267 66.9967 7.476C66.9967 6.722 67.0704 6.05467 67.2177 5.474C67.3737 4.89333 67.5947 4.40367 67.8807 4.005C68.1667 3.60633 68.509 3.303 68.9077 3.095C69.3064 2.887 69.7527 2.783 70.2467 2.783C71.2607 2.783 72.0537 3.19033 72.6257 4.005C73.2064 4.811 73.4967 5.968 73.4967 7.476ZM71.5207 7.476C71.5207 7.02533 71.499 6.618 71.4557 6.254C71.4124 5.88133 71.343 5.56067 71.2477 5.292C71.1524 5.02333 71.0224 4.81533 70.8577 4.668C70.693 4.52067 70.4894 4.447 70.2467 4.447C70.004 4.447 69.8004 4.52067 69.6357 4.668C69.4797 4.81533 69.3497 5.02333 69.2457 5.292C69.1504 5.56067 69.081 5.88133 69.0377 6.254C68.9944 6.618 68.9727 7.02533 68.9727 7.476C68.9727 7.92667 68.9944 8.33833 69.0377 8.711C69.081 9.08367 69.1504 9.40433 69.2457 9.673C69.3497 9.94167 69.4797 10.1497 69.6357 10.297C69.8004 10.4443 70.004 10.518 70.2467 10.518C70.4894 10.518 70.693 10.4443 70.8577 10.297C71.0224 10.1497 71.1524 9.94167 71.2477 9.673C71.343 9.40433 71.4124 9.08367 71.4557 8.711C71.499 8.33833 71.5207 7.92667 71.5207 7.476Z" fill="#F1F1F1" fill-opacity="0.8"/>
<path d="M0.966641 21.863C1.21797 21.759 1.47797 21.642 1.74664 21.512C2.02397 21.3733 2.29264 21.226 2.55264 21.07C2.81264 20.9053 3.05964 20.7363 3.29364 20.563C3.53631 20.381 3.75297 20.1903 3.94364 19.991H5.29564V29H3.35864V22.513C3.09864 22.6863 2.80831 22.8467 2.48764 22.994C2.16697 23.1327 1.85497 23.254 1.55164 23.358L0.966641 21.863ZM14.3873 24.476C14.3873 25.9927 14.097 27.1583 13.5163 27.973C12.9443 28.779 12.1513 29.182 11.1373 29.182C10.1233 29.182 9.32598 28.779 8.74531 27.973C8.17331 27.1583 7.88731 25.9927 7.88731 24.476C7.88731 23.722 7.96098 23.0547 8.10831 22.474C8.26431 21.8933 8.48531 21.4037 8.77131 21.005C9.05731 20.6063 9.39965 20.303 9.79831 20.095C10.197 19.887 10.6433 19.783 11.1373 19.783C12.1513 19.783 12.9443 20.1903 13.5163 21.005C14.097 21.811 14.3873 22.968 14.3873 24.476ZM12.4113 24.476C12.4113 24.0253 12.3896 23.618 12.3463 23.254C12.303 22.8813 12.2336 22.5607 12.1383 22.292C12.043 22.0233 11.913 21.8153 11.7483 21.668C11.5836 21.5207 11.38 21.447 11.1373 21.447C10.8946 21.447 10.691 21.5207 10.5263 21.668C10.3703 21.8153 10.2403 22.0233 10.1363 22.292C10.041 22.5607 9.97165 22.8813 9.92831 23.254C9.88498 23.618 9.86331 24.0253 9.86331 24.476C9.86331 24.9267 9.88498 25.3383 9.92831 25.711C9.97165 26.0837 10.041 26.4043 10.1363 26.673C10.2403 26.9417 10.3703 27.1497 10.5263 27.297C10.691 27.4443 10.8946 27.518 11.1373 27.518C11.38 27.518 11.5836 27.4443 11.7483 27.297C11.913 27.1497 12.043 26.9417 12.1383 26.673C12.2336 26.4043 12.303 26.0837 12.3463 25.711C12.3896 25.3383 12.4113 24.9267 12.4113 24.476ZM15.744 21.863C15.9953 21.759 16.2553 21.642 16.524 21.512C16.8013 21.3733 17.07 21.226 17.33 21.07C17.59 20.9053 17.837 20.7363 18.071 20.563C18.3137 20.381 18.5303 20.1903 18.721 19.991H20.073V29H18.136V22.513C17.876 22.6863 17.5857 22.8467 17.265 22.994C16.9443 23.1327 16.6323 23.254 16.329 23.358L15.744 21.863ZM29.1647 24.476C29.1647 25.9927 28.8743 27.1583 28.2937 27.973C27.7217 28.779 26.9287 29.182 25.9147 29.182C24.9007 29.182 24.1033 28.779 23.5227 27.973C22.9507 27.1583 22.6647 25.9927 22.6647 24.476C22.6647 23.722 22.7383 23.0547 22.8857 22.474C23.0417 21.8933 23.2627 21.4037 23.5487 21.005C23.8347 20.6063 24.177 20.303 24.5757 20.095C24.9743 19.887 25.4207 19.783 25.9147 19.783C26.9287 19.783 27.7217 20.1903 28.2937 21.005C28.8743 21.811 29.1647 22.968 29.1647 24.476ZM27.1887 24.476C27.1887 24.0253 27.167 23.618 27.1237 23.254C27.0803 22.8813 27.011 22.5607 26.9157 22.292C26.8203 22.0233 26.6903 21.8153 26.5257 21.668C26.361 21.5207 26.1573 21.447 25.9147 21.447C25.672 21.447 25.4683 21.5207 25.3037 21.668C25.1477 21.8153 25.0177 22.0233 24.9137 22.292C24.8183 22.5607 24.749 22.8813 24.7057 23.254C24.6623 23.618 24.6407 24.0253 24.6407 24.476C24.6407 24.9267 24.6623 25.3383 24.7057 25.711C24.749 26.0837 24.8183 26.4043 24.9137 26.673C25.0177 26.9417 25.1477 27.1497 25.3037 27.297C25.4683 27.4443 25.672 27.518 25.9147 27.518C26.1573 27.518 26.361 27.4443 26.5257 27.297C26.6903 27.1497 26.8203 26.9417 26.9157 26.673C27.011 26.4043 27.0803 26.0837 27.1237 25.711C27.167 25.3383 27.1887 24.9267 27.1887 24.476ZM30.5213 21.863C30.7727 21.759 31.0327 21.642 31.3013 21.512C31.5787 21.3733 31.8473 21.226 32.1073 21.07C32.3673 20.9053 32.6143 20.7363 32.8483 20.563C33.091 20.381 33.3077 20.1903 33.4983 19.991H34.8503V29H32.9133V22.513C32.6533 22.6863 32.363 22.8467 32.0423 22.994C31.7217 23.1327 31.4097 23.254 31.1063 23.358L30.5213 21.863ZM43.942 24.476C43.942 25.9927 43.6517 27.1583 43.071 27.973C42.499 28.779 41.706 29.182 40.692 29.182C39.678 29.182 38.8807 28.779 38.3 27.973C37.728 27.1583 37.442 25.9927 37.442 24.476C37.442 23.722 37.5157 23.0547 37.663 22.474C37.819 21.8933 38.04 21.4037 38.326 21.005C38.612 20.6063 38.9543 20.303 39.353 20.095C39.7517 19.887 40.198 19.783 40.692 19.783C41.706 19.783 42.499 20.1903 43.071 21.005C43.6517 21.811 43.942 22.968 43.942 24.476ZM41.966 24.476C41.966 24.0253 41.9443 23.618 41.901 23.254C41.8577 22.8813 41.7883 22.5607 41.693 22.292C41.5977 22.0233 41.4677 21.8153 41.303 21.668C41.1383 21.5207 40.9347 21.447 40.692 21.447C40.4493 21.447 40.2457 21.5207 40.081 21.668C39.925 21.8153 39.795 22.0233 39.691 22.292C39.5957 22.5607 39.5263 22.8813 39.483 23.254C39.4397 23.618 39.418 24.0253 39.418 24.476C39.418 24.9267 39.4397 25.3383 39.483 25.711C39.5263 26.0837 39.5957 26.4043 39.691 26.673C39.795 26.9417 39.925 27.1497 40.081 27.297C40.2457 27.4443 40.4493 27.518 40.692 27.518C40.9347 27.518 41.1383 27.4443 41.303 27.297C41.4677 27.1497 41.5977 26.9417 41.693 26.673C41.7883 26.4043 41.8577 26.0837 41.901 25.711C41.9443 25.3383 41.966 24.9267 41.966 24.476ZM51.3307 24.476C51.3307 25.9927 51.0403 27.1583 50.4597 27.973C49.8877 28.779 49.0947 29.182 48.0807 29.182C47.0667 29.182 46.2693 28.779 45.6887 27.973C45.1167 27.1583 44.8307 25.9927 44.8307 24.476C44.8307 23.722 44.9043 23.0547 45.0517 22.474C45.2077 21.8933 45.4287 21.4037 45.7147 21.005C46.0007 20.6063 46.343 20.303 46.7417 20.095C47.1403 19.887 47.5867 19.783 48.0807 19.783C49.0947 19.783 49.8877 20.1903 50.4597 21.005C51.0403 21.811 51.3307 22.968 51.3307 24.476ZM49.3547 24.476C49.3547 24.0253 49.333 23.618 49.2897 23.254C49.2463 22.8813 49.177 22.5607 49.0817 22.292C48.9863 22.0233 48.8563 21.8153 48.6917 21.668C48.527 21.5207 48.3233 21.447 48.0807 21.447C47.838 21.447 47.6343 21.5207 47.4697 21.668C47.3137 21.8153 47.1837 22.0233 47.0797 22.292C46.9843 22.5607 46.915 22.8813 46.8717 23.254C46.8283 23.618 46.8067 24.0253 46.8067 24.476C46.8067 24.9267 46.8283 25.3383 46.8717 25.711C46.915 26.0837 46.9843 26.4043 47.0797 26.673C47.1837 26.9417 47.3137 27.1497 47.4697 27.297C47.6343 27.4443 47.838 27.518 48.0807 27.518C48.3233 27.518 48.527 27.4443 48.6917 27.297C48.8563 27.1497 48.9863 26.9417 49.0817 26.673C49.177 26.4043 49.2463 26.0837 49.2897 25.711C49.333 25.3383 49.3547 24.9267 49.3547 24.476ZM52.6873 21.863C52.9387 21.759 53.1987 21.642 53.4673 21.512C53.7447 21.3733 54.0133 21.226 54.2733 21.07C54.5333 20.9053 54.7803 20.7363 55.0143 20.563C55.257 20.381 55.4737 20.1903 55.6643 19.991H57.0163V29H55.0793V22.513C54.8193 22.6863 54.529 22.8467 54.2083 22.994C53.8877 23.1327 53.5757 23.254 53.2723 23.358L52.6873 21.863ZM66.108 24.476C66.108 25.9927 65.8177 27.1583 65.237 27.973C64.665 28.779 63.872 29.182 62.858 29.182C61.844 29.182 61.0467 28.779 60.466 27.973C59.894 27.1583 59.608 25.9927 59.608 24.476C59.608 23.722 59.6817 23.0547 59.829 22.474C59.985 21.8933 60.206 21.4037 60.492 21.005C60.778 20.6063 61.1203 20.303 61.519 20.095C61.9177 19.887 62.364 19.783 62.858 19.783C63.872 19.783 64.665 20.1903 65.237 21.005C65.8177 21.811 66.108 22.968 66.108 24.476ZM64.132 24.476C64.132 24.0253 64.1103 23.618 64.067 23.254C64.0237 22.8813 63.9543 22.5607 63.859 22.292C63.7637 22.0233 63.6337 21.8153 63.469 21.668C63.3043 21.5207 63.1007 21.447 62.858 21.447C62.6153 21.447 62.4117 21.5207 62.247 21.668C62.091 21.8153 61.961 22.0233 61.857 22.292C61.7617 22.5607 61.6923 22.8813 61.649 23.254C61.6057 23.618 61.584 24.0253 61.584 24.476C61.584 24.9267 61.6057 25.3383 61.649 25.711C61.6923 26.0837 61.7617 26.4043 61.857 26.673C61.961 26.9417 62.091 27.1497 62.247 27.297C62.4117 27.4443 62.6153 27.518 62.858 27.518C63.1007 27.518 63.3043 27.4443 63.469 27.297C63.6337 27.1497 63.7637 26.9417 63.859 26.673C63.9543 26.4043 64.0237 26.0837 64.067 25.711C64.1103 25.3383 64.132 24.9267 64.132 24.476ZM67.4647 21.863C67.716 21.759 67.976 21.642 68.2447 21.512C68.522 21.3733 68.7907 21.226 69.0507 21.07C69.3107 20.9053 69.5577 20.7363 69.7917 20.563C70.0344 20.381 70.251 20.1903 70.4417 19.991H71.7937V29H69.8567V22.513C69.5967 22.6863 69.3064 22.8467 68.9857 22.994C68.665 23.1327 68.353 23.254 68.0497 23.358L67.4647 21.863Z" fill="#F1F1F1" fill-opacity="0.8"/>
<path d="M6.99864 41.476C6.99864 42.9927 6.70831 44.1583 6.12764 44.973C5.55564 45.779 4.76264 46.182 3.74864 46.182C2.73464 46.182 1.93731 45.779 1.35664 44.973C0.784641 44.1583 0.498641 42.9927 0.498641 41.476C0.498641 40.722 0.572307 40.0547 0.719641 39.474C0.875641 38.8933 1.09664 38.4037 1.38264 38.005C1.66864 37.6063 2.01097 37.303 2.40964 37.095C2.80831 36.887 3.25464 36.783 3.74864 36.783C4.76264 36.783 5.55564 37.1903 6.12764 38.005C6.70831 38.811 6.99864 39.968 6.99864 41.476ZM5.02264 41.476C5.02264 41.0253 5.00097 40.618 4.95764 40.254C4.91431 39.8813 4.84497 39.5607 4.74964 39.292C4.65431 39.0233 4.52431 38.8153 4.35964 38.668C4.19497 38.5207 3.99131 38.447 3.74864 38.447C3.50597 38.447 3.30231 38.5207 3.13764 38.668C2.98164 38.8153 2.85164 39.0233 2.74764 39.292C2.65231 39.5607 2.58297 39.8813 2.53964 40.254C2.49631 40.618 2.47464 41.0253 2.47464 41.476C2.47464 41.9267 2.49631 42.3383 2.53964 42.711C2.58297 43.0837 2.65231 43.4043 2.74764 43.673C2.85164 43.9417 2.98164 44.1497 3.13764 44.297C3.30231 44.4443 3.50597 44.518 3.74864 44.518C3.99131 44.518 4.19497 44.4443 4.35964 44.297C4.52431 44.1497 4.65431 43.9417 4.74964 43.673C4.84497 43.4043 4.91431 43.0837 4.95764 42.711C5.00097 42.3383 5.02264 41.9267 5.02264 41.476ZM14.3873 41.476C14.3873 42.9927 14.097 44.1583 13.5163 44.973C12.9443 45.779 12.1513 46.182 11.1373 46.182C10.1233 46.182 9.32598 45.779 8.74531 44.973C8.17331 44.1583 7.88731 42.9927 7.88731 41.476C7.88731 40.722 7.96098 40.0547 8.10831 39.474C8.26431 38.8933 8.48531 38.4037 8.77131 38.005C9.05731 37.6063 9.39965 37.303 9.79831 37.095C10.197 36.887 10.6433 36.783 11.1373 36.783C12.1513 36.783 12.9443 37.1903 13.5163 38.005C14.097 38.811 14.3873 39.968 14.3873 41.476ZM12.4113 41.476C12.4113 41.0253 12.3896 40.618 12.3463 40.254C12.303 39.8813 12.2336 39.5607 12.1383 39.292C12.043 39.0233 11.913 38.8153 11.7483 38.668C11.5836 38.5207 11.38 38.447 11.1373 38.447C10.8946 38.447 10.691 38.5207 10.5263 38.668C10.3703 38.8153 10.2403 39.0233 10.1363 39.292C10.041 39.5607 9.97165 39.8813 9.92831 40.254C9.88498 40.618 9.86331 41.0253 9.86331 41.476C9.86331 41.9267 9.88498 42.3383 9.92831 42.711C9.97165 43.0837 10.041 43.4043 10.1363 43.673C10.2403 43.9417 10.3703 44.1497 10.5263 44.297C10.691 44.4443 10.8946 44.518 11.1373 44.518C11.38 44.518 11.5836 44.4443 11.7483 44.297C11.913 44.1497 12.043 43.9417 12.1383 43.673C12.2336 43.4043 12.303 43.0837 12.3463 42.711C12.3896 42.3383 12.4113 41.9267 12.4113 41.476ZM15.744 38.863C15.9953 38.759 16.2553 38.642 16.524 38.512C16.8013 38.3733 17.07 38.226 17.33 38.07C17.59 37.9053 17.837 37.7363 18.071 37.563C18.3137 37.381 18.5303 37.1903 18.721 36.991H20.073V46H18.136V39.513C17.876 39.6863 17.5857 39.8467 17.265 39.994C16.9443 40.1327 16.6323 40.254 16.329 40.358L15.744 38.863ZM29.1647 41.476C29.1647 42.9927 28.8743 44.1583 28.2937 44.973C27.7217 45.779 26.9287 46.182 25.9147 46.182C24.9007 46.182 24.1033 45.779 23.5227 44.973C22.9507 44.1583 22.6647 42.9927 22.6647 41.476C22.6647 40.722 22.7383 40.0547 22.8857 39.474C23.0417 38.8933 23.2627 38.4037 23.5487 38.005C23.8347 37.6063 24.177 37.303 24.5757 37.095C24.9743 36.887 25.4207 36.783 25.9147 36.783C26.9287 36.783 27.7217 37.1903 28.2937 38.005C28.8743 38.811 29.1647 39.968 29.1647 41.476ZM27.1887 41.476C27.1887 41.0253 27.167 40.618 27.1237 40.254C27.0803 39.8813 27.011 39.5607 26.9157 39.292C26.8203 39.0233 26.6903 38.8153 26.5257 38.668C26.361 38.5207 26.1573 38.447 25.9147 38.447C25.672 38.447 25.4683 38.5207 25.3037 38.668C25.1477 38.8153 25.0177 39.0233 24.9137 39.292C24.8183 39.5607 24.749 39.8813 24.7057 40.254C24.6623 40.618 24.6407 41.0253 24.6407 41.476C24.6407 41.9267 24.6623 42.3383 24.7057 42.711C24.749 43.0837 24.8183 43.4043 24.9137 43.673C25.0177 43.9417 25.1477 44.1497 25.3037 44.297C25.4683 44.4443 25.672 44.518 25.9147 44.518C26.1573 44.518 26.361 44.4443 26.5257 44.297C26.6903 44.1497 26.8203 43.9417 26.9157 43.673C27.011 43.4043 27.0803 43.0837 27.1237 42.711C27.167 42.3383 27.1887 41.9267 27.1887 41.476ZM30.5213 38.863C30.7727 38.759 31.0327 38.642 31.3013 38.512C31.5787 38.3733 31.8473 38.226 32.1073 38.07C32.3673 37.9053 32.6143 37.7363 32.8483 37.563C33.091 37.381 33.3077 37.1903 33.4983 36.991H34.8503V46H32.9133V39.513C32.6533 39.6863 32.363 39.8467 32.0423 39.994C31.7217 40.1327 31.4097 40.254 31.1063 40.358L30.5213 38.863ZM43.942 41.476C43.942 42.9927 43.6517 44.1583 43.071 44.973C42.499 45.779 41.706 46.182 40.692 46.182C39.678 46.182 38.8807 45.779 38.3 44.973C37.728 44.1583 37.442 42.9927 37.442 41.476C37.442 40.722 37.5157 40.0547 37.663 39.474C37.819 38.8933 38.04 38.4037 38.326 38.005C38.612 37.6063 38.9543 37.303 39.353 37.095C39.7517 36.887 40.198 36.783 40.692 36.783C41.706 36.783 42.499 37.1903 43.071 38.005C43.6517 38.811 43.942 39.968 43.942 41.476ZM41.966 41.476C41.966 41.0253 41.9443 40.618 41.901 40.254C41.8577 39.8813 41.7883 39.5607 41.693 39.292C41.5977 39.0233 41.4677 38.8153 41.303 38.668C41.1383 38.5207 40.9347 38.447 40.692 38.447C40.4493 38.447 40.2457 38.5207 40.081 38.668C39.925 38.8153 39.795 39.0233 39.691 39.292C39.5957 39.5607 39.5263 39.8813 39.483 40.254C39.4397 40.618 39.418 41.0253 39.418 41.476C39.418 41.9267 39.4397 42.3383 39.483 42.711C39.5263 43.0837 39.5957 43.4043 39.691 43.673C39.795 43.9417 39.925 44.1497 40.081 44.297C40.2457 44.4443 40.4493 44.518 40.692 44.518C40.9347 44.518 41.1383 44.4443 41.303 44.297C41.4677 44.1497 41.5977 43.9417 41.693 43.673C41.7883 43.4043 41.8577 43.0837 41.901 42.711C41.9443 42.3383 41.966 41.9267 41.966 41.476ZM51.3307 41.476C51.3307 42.9927 51.0403 44.1583 50.4597 44.973C49.8877 45.779 49.0947 46.182 48.0807 46.182C47.0667 46.182 46.2693 45.779 45.6887 44.973C45.1167 44.1583 44.8307 42.9927 44.8307 41.476C44.8307 40.722 44.9043 40.0547 45.0517 39.474C45.2077 38.8933 45.4287 38.4037 45.7147 38.005C46.0007 37.6063 46.343 37.303 46.7417 37.095C47.1403 36.887 47.5867 36.783 48.0807 36.783C49.0947 36.783 49.8877 37.1903 50.4597 38.005C51.0403 38.811 51.3307 39.968 51.3307 41.476ZM49.3547 41.476C49.3547 41.0253 49.333 40.618 49.2897 40.254C49.2463 39.8813 49.177 39.5607 49.0817 39.292C48.9863 39.0233 48.8563 38.8153 48.6917 38.668C48.527 38.5207 48.3233 38.447 48.0807 38.447C47.838 38.447 47.6343 38.5207 47.4697 38.668C47.3137 38.8153 47.1837 39.0233 47.0797 39.292C46.9843 39.5607 46.915 39.8813 46.8717 40.254C46.8283 40.618 46.8067 41.0253 46.8067 41.476C46.8067 41.9267 46.8283 42.3383 46.8717 42.711C46.915 43.0837 46.9843 43.4043 47.0797 43.673C47.1837 43.9417 47.3137 44.1497 47.4697 44.297C47.6343 44.4443 47.838 44.518 48.0807 44.518C48.3233 44.518 48.527 44.4443 48.6917 44.297C48.8563 44.1497 48.9863 43.9417 49.0817 43.673C49.177 43.4043 49.2463 43.0837 49.2897 42.711C49.333 42.3383 49.3547 41.9267 49.3547 41.476ZM52.6873 38.863C52.9387 38.759 53.1987 38.642 53.4673 38.512C53.7447 38.3733 54.0133 38.226 54.2733 38.07C54.5333 37.9053 54.7803 37.7363 55.0143 37.563C55.257 37.381 55.4737 37.1903 55.6643 36.991H57.0163V46H55.0793V39.513C54.8193 39.6863 54.529 39.8467 54.2083 39.994C53.8877 40.1327 53.5757 40.254 53.2723 40.358L52.6873 38.863ZM60.076 38.863C60.3273 38.759 60.5873 38.642 60.856 38.512C61.1333 38.3733 61.402 38.226 61.662 38.07C61.922 37.9053 62.169 37.7363 62.403 37.563C62.6457 37.381 62.8623 37.1903 63.053 36.991H64.405V46H62.468V39.513C62.208 39.6863 61.9177 39.8467 61.597 39.994C61.2763 40.1327 60.9643 40.254 60.661 40.358L60.076 38.863ZM67.4647 38.863C67.716 38.759 67.976 38.642 68.2447 38.512C68.522 38.3733 68.7907 38.226 69.0507 38.07C69.3107 37.9053 69.5577 37.7363 69.7917 37.563C70.0344 37.381 70.251 37.1903 70.4417 36.991H71.7937V46H69.8567V39.513C69.5967 39.6863 69.3064 39.8467 68.9857 39.994C68.665 40.1327 68.353 40.254 68.0497 40.358L67.4647 38.863Z" fill="#F1F1F1" fill-opacity="0.8"/>
</svg>
