<?xml version="1.0" ?><svg height="64" viewBox="0 0 64 64" width="64" xmlns="http://www.w3.org/2000/svg"><defs><style>.cls-1{fill:none;stroke:#FFCE00;stroke-linejoin:round;stroke-width:2px;}</style></defs><title/><g data-name="3-SEO Connection" id="_3-SEO_Connection"><rect class="cls-1" height="62" rx="2" ry="2" width="62" x="1" y="1"/><line class="cls-1" x1="1" x2="63" y1="9" y2="9"/><line class="cls-1" x1="4" x2="6" y1="5" y2="5"/><line class="cls-1" x1="8" x2="10" y1="5" y2="5"/><line class="cls-1" x1="58" x2="60" y1="5" y2="5"/><path class="cls-1" d="M10,52v4a2,2,0,0,0,2,2h9a2,2,0,0,0,2-2V50a2,2,0,0,0-2-2H12a2,2,0,0,1-2-2V40a2,2,0,0,1,2-2h9a2,2,0,0,1,2,2v4"/><polyline class="cls-1" points="38 38 28 38 28 58 38 58"/><line class="cls-1" x1="28" x2="38" y1="48" y2="48"/><rect class="cls-1" height="20" rx="2" ry="2" width="12" x="42" y="38"/><line class="cls-1" x1="32" x2="32" y1="34" y2="20"/><circle class="cls-1" cx="32" cy="17" r="3"/><circle class="cls-1" cx="47" cy="17" r="3"/><circle class="cls-1" cx="55" cy="31" r="3"/><circle class="cls-1" cx="17" cy="17" r="3"/><polyline class="cls-1" points="32 27 47 27 47 20"/><polyline class="cls-1" points="32 27 17 27 17 20"/><polyline class="cls-1" points="50 24 55 24 55 28"/><circle class="cls-1" cx="9" cy="31" r="3"/><polyline class="cls-1" points="14 24 9 24 9 28"/></g></svg>